<svg version="1.1" id="Layer_1" xmlns="http://www.w3.org/2000/svg" xmlns:xlink="http://www.w3.org/1999/xlink" x="0px" y="0px"
	 width="100%" viewBox="0 0 225 225" enable-background="new 0 0 225 225" xml:space="preserve">
<path fill="#FFFFFE" opacity="1.000000" stroke="none" 
	d="
M128.000000,226.000000 
	C85.333336,226.000000 43.166672,226.000000 1.000006,226.000000 
	C1.000004,151.000000 1.000004,76.000015 1.000002,1.000016 
	C75.999992,1.000010 150.999985,1.000010 225.999969,1.000005 
	C225.999985,75.999985 225.999985,150.999969 226.000000,225.999969 
	C193.500000,226.000000 161.000000,226.000000 128.000000,226.000000 
M115.755440,207.211243 
	C119.959213,198.385315 124.162987,189.559402 128.668716,180.099518 
	C137.761887,187.357071 146.485397,194.319611 156.234436,202.100632 
	C156.234436,189.542130 156.234436,178.382263 156.234436,166.956223 
	C167.454315,169.504028 178.059601,171.912277 190.155411,174.658997 
	C184.773117,163.382462 180.026062,153.436798 175.112793,143.142883 
	C186.349884,140.569199 197.252975,138.072006 209.192825,135.337372 
	C199.635452,127.697601 190.868317,120.689514 181.870377,113.496941 
	C190.913925,106.267181 199.677368,99.261345 209.189438,91.657028 
	C197.200272,88.909294 186.304306,86.412094 175.109589,83.846436 
	C180.052521,73.499939 184.793106,63.577000 190.155487,52.352512 
	C177.871414,55.126778 167.158218,57.546272 155.936249,60.080673 
	C155.936249,48.386799 155.936249,37.314575 155.936249,25.192539 
	C146.432693,32.737782 137.680252,39.686672 128.686539,46.827129 
	C123.523399,36.118736 118.666023,26.044493 113.480934,15.290574 
	C108.240669,26.191538 103.385406,36.291603 98.303497,46.863148 
	C89.127319,39.553886 80.487190,32.671608 70.931740,25.060236 
	C70.931740,37.392742 70.931740,48.565437 70.931740,60.057259 
	C59.417000,57.464706 48.518295,55.010853 36.743408,52.359726 
	C42.093887,63.449615 46.919430,73.451477 51.933098,83.843254 
	C40.684525,86.419678 29.780279,88.917236 17.806194,91.659836 
	C27.348124,99.285652 36.120609,106.296539 45.151344,113.513817 
	C36.074745,120.753075 27.235735,127.802834 17.759130,135.361130 
	C29.929432,138.131775 40.758030,140.596970 51.932030,143.140793 
	C46.899822,153.589951 42.056347,163.647217 36.742886,174.680374 
	C48.721455,171.970398 59.632839,169.501846 71.263130,166.870651 
	C71.263130,178.652039 71.263130,189.808899 71.263130,201.707382 
	C80.683609,194.186813 89.347557,187.270187 98.292511,180.129242 
	C103.472778,190.877304 108.335556,200.966660 113.442871,211.563354 
	C114.310402,209.894440 114.842720,208.870407 115.755440,207.211243 
z"/>
<path fill="#FFD602" opacity="1.000000" stroke="none" 
	d="
M115.565239,207.528809 
	C114.842720,208.870407 114.310402,209.894440 113.442871,211.563354 
	C108.335556,200.966660 103.472778,190.877304 98.292511,180.129242 
	C89.347557,187.270187 80.683609,194.186813 71.263130,201.707382 
	C71.263130,189.808899 71.263130,178.652039 71.263130,166.870651 
	C59.632839,169.501846 48.721455,171.970398 36.742886,174.680374 
	C42.056347,163.647217 46.899822,153.589951 51.932030,143.140793 
	C40.758030,140.596970 29.929432,138.131775 17.759130,135.361130 
	C27.235735,127.802834 36.074745,120.753075 45.151344,113.513817 
	C36.120609,106.296539 27.348124,99.285652 17.806194,91.659836 
	C29.780279,88.917236 40.684525,86.419678 51.933098,83.843254 
	C46.919430,73.451477 42.093887,63.449615 36.743408,52.359726 
	C48.518295,55.010853 59.417000,57.464706 70.931740,60.057259 
	C70.931740,48.565437 70.931740,37.392742 70.931740,25.060236 
	C80.487190,32.671608 89.127319,39.553886 98.303497,46.863148 
	C103.385406,36.291603 108.240669,26.191538 113.480934,15.290574 
	C118.666023,26.044493 123.523399,36.118736 128.686539,46.827129 
	C137.680252,39.686672 146.432693,32.737782 155.936249,25.192539 
	C155.936249,37.314575 155.936249,48.386799 155.936249,60.080673 
	C167.158218,57.546272 177.871414,55.126778 190.155487,52.352512 
	C184.793106,63.577000 180.052521,73.499939 175.109589,83.846436 
	C186.304306,86.412094 197.200272,88.909294 209.189438,91.657028 
	C199.677368,99.261345 190.913925,106.267181 181.870377,113.496941 
	C190.868317,120.689514 199.635452,127.697601 209.192825,135.337372 
	C197.252975,138.072006 186.349884,140.569199 175.112793,143.142883 
	C180.026062,153.436798 184.773117,163.382462 190.155411,174.658997 
	C178.059601,171.912277 167.454315,169.504028 156.234436,166.956223 
	C156.234436,178.382263 156.234436,189.542130 156.234436,202.100632 
	C146.485397,194.319611 137.761887,187.357071 128.668716,180.099518 
	C124.162987,189.559402 119.959213,198.385315 115.565239,207.528809 
M118.070114,52.182018 
	C113.787407,52.451324 109.472710,52.476521 105.227638,53.032940 
	C88.433296,55.234222 74.686409,63.067108 64.714813,76.703468 
	C54.994061,89.996803 50.388096,104.791321 52.881325,121.597717 
	C54.749035,134.187607 59.549622,145.308701 68.118355,154.465500 
	C82.602875,169.944077 100.425262,176.947510 121.830627,174.047577 
	C138.309982,171.815018 151.863190,164.189270 161.738708,151.134155 
	C171.839737,137.780899 176.727097,122.627396 174.121368,105.414108 
	C172.190414,92.658401 167.160538,81.577156 158.578522,72.150597 
	C147.964569,60.492142 134.553665,54.175793 118.070114,52.182018 
z"/>
<path fill="#FFF100" opacity="1.000000" stroke="none" 
	d="
M118.497589,52.328545 
	C134.553665,54.175793 147.964569,60.492142 158.578522,72.150597 
	C167.160538,81.577156 172.190414,92.658401 174.121368,105.414108 
	C176.727097,122.627396 171.839737,137.780899 161.738708,151.134155 
	C151.863190,164.189270 138.309982,171.815018 121.830627,174.047577 
	C100.425262,176.947510 82.602875,169.944077 68.118355,154.465500 
	C59.549622,145.308701 54.749035,134.187607 52.881325,121.597717 
	C50.388096,104.791321 54.994061,89.996803 64.714813,76.703468 
	C74.686409,63.067108 88.433296,55.234222 105.227638,53.032940 
	C109.472710,52.476521 113.787407,52.451324 118.497589,52.328545 
z"/>
</svg>