<?xml version="1.0" encoding="UTF-8" standalone="no"?>


<svg
   width="51mm"
   height="52mm"
   viewBox="0 0 51 52"
   version="1.1"
   id="svg5"
   xml:space="preserve"
   inkscape:version="1.2.2 (732a01da63, 2022-12-09)"
   sodipodi:docname="sun.svg"
   xmlns:inkscape="http://www.inkscape.org/namespaces/inkscape"
   xmlns:sodipodi="http://sodipodi.sourceforge.net/DTD/sodipodi-0.dtd"
   xmlns="http://www.w3.org/2000/svg"
   xmlns:svg="http://www.w3.org/2000/svg"><sodipodi:namedview
     id="namedview7"
     pagecolor="#ffffff"
     bordercolor="#000000"
     borderopacity="0.25"
     inkscape:showpageshadow="2"
     inkscape:pageopacity="0.0"
     inkscape:pagecheckerboard="0"
     inkscape:deskcolor="#d1d1d1"
     inkscape:document-units="mm"
     showgrid="false"
     inkscape:zoom="1.9855336"
     inkscape:cx="41.550543"
     inkscape:cy="89.648444"
     inkscape:window-width="1920"
     inkscape:window-height="986"
     inkscape:window-x="-11"
     inkscape:window-y="-11"
     inkscape:window-maximized="1"
     inkscape:current-layer="g207" /><defs
     id="defs2" /><g
     inkscape:label="Layer 1"
     inkscape:groupmode="layer"
     id="layer1"><g
       id="g207"
       transform="matrix(0.26458333,0,0,0.26458333,87.186793,21.605578)"><path
         fill="#fffffe"
         opacity="1"
         stroke="none"
         d="m -230.84099,110.34405 c 4.20377,-8.82593 8.40755,-17.651836 12.91328,-27.111716 9.09317,7.25755 17.81668,14.22009 27.56572,22.001106 V 70.089034 c 11.21987,2.54781 21.82516,4.95606 33.92097,7.70278 -5.38229,-11.27654 -10.12935,-21.2222 -15.04262,-31.51612 11.23709,-2.57368 22.14018,-5.07087 34.08003,-7.80551 -9.55737,-7.639766 -18.3245,-14.647856 -27.32244,-21.840426 9.04354,-7.2297603 17.80699,-14.2356003 27.31906,-21.8399103 -11.98917,-2.74774 -22.88513,-5.2449397 -34.07985,-7.8105897 4.94293,-10.3465 9.68352,-20.26944 15.0459,-31.493928 -12.28408,2.774266 -22.99727,5.19376 -34.21924,7.728161 v -34.888134 c -9.50356,7.545243 -18.256,14.494133 -27.24971,21.63459 l -15.20561,-31.536555 c -5.24026,10.900964 -10.09552,21.001029 -15.17743,31.572574 -9.17618,-7.309262 -17.81631,-14.19154 -27.37176,-21.802912 v 34.997023 l -34.18833,-7.697533 c 5.35048,11.089889 10.17602,21.091754 15.18969,31.483524 l -34.12691,7.8165897 c 9.54193,7.62581 18.31442,14.6367 27.34515,21.8539803 -9.07659,7.23925 -17.9156,14.28901 -27.39221,21.847306 12.1703,2.77064 22.9989,5.23584 34.1729,7.77966 -5.03221,10.44916 -9.87568,20.50643 -15.18914,31.53958 11.97857,-2.70997 22.88995,-5.17852 34.52024,-7.80972 v 34.836726 c 9.42048,-7.520566 18.08443,-14.437186 27.02938,-21.578136 5.18027,10.74806 10.04305,20.837416 15.15036,31.434106 0.86753,-1.66891 1.39985,-2.69294 2.31257,-4.35211 z"
         id="path193"
         sodipodi:nodetypes="cccccccccccccccccccccccccccccc" /><path
         fill="#ffd602"
         opacity="1"
         stroke="none"
         d="m -231.03119,110.66162 c -0.72252,1.3416 -1.25484,2.36563 -2.12237,4.03454 -5.10731,-10.59669 -9.97009,-20.686046 -15.15036,-31.434106 -8.94495,7.14095 -17.6089,14.05757 -27.02938,21.578136 0,-11.898476 0,-23.055336 0,-34.836726 -11.63029,2.6312 -22.54167,5.09975 -34.52024,7.80972 5.31346,-11.03315 10.15693,-21.09042 15.18914,-31.53958 -11.174,-2.54382 -22.0026,-5.00902 -34.1729,-7.77966 9.47661,-7.558296 18.31562,-14.608056 27.39221,-21.847306 -9.03073,-7.2172803 -17.80322,-14.2281703 -27.34515,-21.8539803 11.97409,-2.7426 22.87834,-5.2401597 34.12691,-7.8165897 -5.01367,-10.39177 -9.83921,-20.393635 -15.18969,-31.483524 11.77489,2.651127 22.67359,5.10498 34.18833,7.697533 0,-11.491822 0,-22.664517 0,-34.997023 9.55545,7.611372 18.19558,14.49365 27.37176,21.802912 5.08191,-10.571545 9.93717,-20.67161 15.17743,-31.572574 5.18509,10.753919 10.04247,20.828162 15.20561,31.536555 8.99371,-7.140457 17.74615,-14.089347 27.24971,-21.63459 0,12.122036 0,23.19426 0,34.888134 11.22197,-2.534401 21.93516,-4.953895 34.21924,-7.728161 -5.36238,11.224488 -10.10297,21.147428 -15.0459,31.493928 11.19472,2.56565 22.09068,5.0628497 34.07985,7.8105897 -9.51207,7.60431 -18.27552,14.61015 -27.31906,21.8399103 8.99794,7.19257 17.76507,14.20066 27.32244,21.840426 -11.93985,2.73464 -22.84294,5.23183 -34.08003,7.80551 4.91327,10.29392 9.66033,20.23958 15.04262,31.51612 -12.09581,-2.74672 -22.7011,-5.15497 -33.92097,-7.70278 0,11.42604 0,22.58591 0,35.144406 -9.74904,-7.781016 -18.47255,-14.743556 -27.56572,-22.001106 -4.50573,9.45988 -8.70951,18.285786 -13.10348,27.429286 m 2.50487,-155.346784 c -4.2827,0.269306 -8.5974,0.294503 -12.84247,0.850922 -16.79434,2.201282 -30.54123,10.034168 -40.51283,23.67053 -9.72075,13.2933297 -14.32671,28.0878497 -11.83348,44.89425 1.86771,12.58989 6.66829,23.710976 15.23703,32.867776 14.48452,15.47858 32.3069,22.48201 53.71227,19.58208 16.47935,-2.23256 30.03256,-9.85831 39.90808,-22.91343 10.10103,-13.35325 14.98839,-28.506746 12.38266,-45.7200363 -1.93096,-12.75571 -6.96083,-23.8369497 -15.54285,-33.2635097 -10.61395,-11.658458 -24.02486,-17.974807 -40.50841,-19.968582 z"
         id="path195" /><path
         fill="#fff100"
         opacity="1"
         stroke="none"
         d="m -228.09884,-44.538637 c 16.05607,1.847248 29.46698,8.163597 40.08093,19.822055 8.58202,9.42656 13.61189,20.5077997 15.54285,33.2635097 2.60573,17.2132903 -2.28163,32.3667863 -12.38266,45.7200363 -9.87552,13.05512 -23.42873,20.68087 -39.90808,22.91343 -21.40537,2.89993 -39.22775,-4.1035 -53.71227,-19.58208 -8.56874,-9.1568 -13.36932,-20.277886 -15.23703,-32.867776 -2.49323,-16.8064003 2.11273,-31.6009203 11.83348,-44.89425 9.9716,-13.636362 23.71849,-21.469248 40.51283,-23.67053 4.24507,-0.556419 8.55977,-0.581616 13.26995,-0.704395 z"
         id="path197" /></g></g></svg>
